# xmcd
#
# Track frame offsets: 
#        150
#        13140
#        34655
#        49174
#        64898
#        81390
#        91989
#        105474
#        126641
#        139270
#        156588
#        173303
#        189812
#        208160
#        223292
#        237415
#
# Disc length: 3421 seconds
#
# Revision: 0
# Processed by: cddbd v1.5.2PL0 Copyright (c) Steve Scherf et al.
# Submitted via: ExactAudioCopyFreeDBPlugin 1.0
#
DISCID=eb0d5b10
DTITLE=Natalie Padilla - Fireweed
DYEAR=2019
DGENRE=Bluegrass
TTITLE0=Goose
TTITLE1=Fireweed
TTITLE2=Tetonia
TTITLE3=Janet's Waltz
TTITLE4=Jenny
TTITLE5=Over the Clouds
TTITLE6=Nancy Ann
TTITLE7=Peasant and Prince
TTITLE8=Ron and Lavone
TTITLE9=Piggy Piggy Pie
TTITLE10=June's Waltz
TTITLE11=Bee in the Veil
TTITLE12=The Owl Song
TTITLE13=Sally Anne
TTITLE14=Little Bug and Ruthie
TTITLE15=Rove Riley Rove
EXTD=
EXTT0=
EXTT1=
EXTT2=
EXTT3=
EXTT4=
EXTT5=
EXTT6=
EXTT7=
EXTT8=
EXTT9=
EXTT10=
EXTT11=
EXTT12=
EXTT13=
EXTT14=
EXTT15=
PLAYORDER=
